<svg width="72" height="72" viewBox="0 0 72 72" fill="none" xmlns="http://www.w3.org/2000/svg">
<path opacity="0.5" d="M36 6C30.0666 6 24.2664 7.75947 19.3329 11.0559C14.3994 14.3524 10.5543 19.0377 8.28363 24.5195C6.013 30.0013 5.4189 36.0333 6.57646 41.8527C7.73401 47.6721 10.5912 53.0176 14.7868 57.2132C18.9824 61.4088 24.3279 64.266 30.1473 65.4236C35.9667 66.5811 41.9987 65.987 47.4805 63.7164C52.9623 61.4458 57.6477 57.6006 60.9441 52.6671C64.2405 47.7336 66 41.9334 66 36C66 32.0603 65.224 28.1593 63.7164 24.5195C62.2088 20.8797 59.999 17.5726 57.2132 14.7868C54.4275 12.001 51.1203 9.79126 47.4805 8.28361C43.8408 6.77597 39.9397 6 36 6V6ZM36 60C31.2533 60 26.6131 58.5924 22.6663 55.9553C18.7195 53.3181 15.6434 49.5698 13.8269 45.1844C12.0104 40.799 11.5351 35.9734 12.4612 31.3178C13.3872 26.6623 15.673 22.3859 19.0295 19.0294C22.3859 15.673 26.6623 13.3872 31.3178 12.4612C35.9734 11.5351 40.799 12.0104 45.1844 13.8269C49.5698 15.6434 53.3181 18.7195 55.9553 22.6663C58.5924 26.6131 60 31.2532 60 36C60 42.3652 57.4715 48.4697 52.9706 52.9706C48.4697 57.4714 42.3652 60 36 60V60Z" fill="#222222"/>
<path d="M60 36H66C66 32.0603 65.224 28.1593 63.7164 24.5195C62.2087 20.8797 59.999 17.5726 57.2132 14.7868C54.4274 12.001 51.1203 9.79126 47.4805 8.28361C43.8407 6.77597 39.9397 6 36 6V12C42.3652 12 48.4697 14.5286 52.9706 19.0294C57.4714 23.5303 60 29.6348 60 36Z" fill="#222222"/>
</svg>
