<svg width="42" height="42" viewBox="0 0 42 42" fill="none" xmlns="http://www.w3.org/2000/svg">
<path d="M21 15.7588C22.8565 15.7588 24.637 16.4962 25.9498 17.809C27.2625 19.1218 28 20.9022 28 22.7588C28 24.6153 27.2625 26.3957 25.9498 27.7085C24.637 29.0213 22.8565 29.7587 21 29.7587C19.1435 29.7587 17.363 29.0213 16.0503 27.7085C14.7375 26.3957 14 24.6153 14 22.7588C14 20.9022 14.7375 19.1218 16.0503 17.809C17.363 16.4962 19.1435 15.7588 21 15.7588V15.7588ZM21 9.625C29.0728 9.625 36.043 15.1375 37.9768 22.862C38.0615 23.1997 38.0086 23.5571 37.8297 23.8558C37.6509 24.1544 37.3607 24.3698 37.023 24.4545C36.6854 24.5392 36.3279 24.4863 36.0292 24.3074C35.7306 24.1286 35.5152 23.8384 35.4305 23.5007C34.6216 20.2857 32.7621 17.4328 30.1472 15.3948C27.5323 13.3568 24.3117 12.2505 20.9964 12.2513C17.6811 12.2521 14.4611 13.36 11.8471 15.3993C9.23321 17.4385 7.37515 20.2923 6.56778 23.5077C6.47711 23.8384 6.26067 24.1204 5.96476 24.2935C5.66884 24.4666 5.31693 24.5171 4.9843 24.4341C4.65166 24.3511 4.36469 24.1413 4.18477 23.8494C4.00485 23.5576 3.94626 23.207 4.02153 22.8725C4.9705 19.0881 7.15658 15.7291 10.2326 13.329C13.3087 10.9289 17.0984 9.62524 21 9.625V9.625Z" fill="#00B2FF"/>
</svg>
