<svg width="64" height="64" viewBox="0 0 64 64" fill="none" xmlns="http://www.w3.org/2000/svg">
<path fill-rule="evenodd" clip-rule="evenodd" d="M6.4 12.8C5.8342 12.8 5.29158 13.0247 4.8915 13.4248C4.49142 13.8249 4.26666 14.3675 4.26666 14.9333C4.26666 15.4991 4.49142 16.0417 4.8915 16.4418C5.29158 16.8419 5.8342 17.0667 6.4 17.0667H57.6C58.1658 17.0667 58.7084 16.8419 59.1085 16.4418C59.5086 16.0417 59.7333 15.4991 59.7333 14.9333C59.7333 14.3675 59.5086 13.8249 59.1085 13.4248C58.7084 13.0247 58.1658 12.8 57.6 12.8H6.4ZM4.26666 32C4.26666 31.4342 4.49142 30.8916 4.8915 30.4915C5.29158 30.0914 5.8342 29.8667 6.4 29.8667H57.6C58.1658 29.8667 58.7084 30.0914 59.1085 30.4915C59.5086 30.8916 59.7333 31.4342 59.7333 32C59.7333 32.5658 59.5086 33.1084 59.1085 33.5085C58.7084 33.9086 58.1658 34.1333 57.6 34.1333H6.4C5.8342 34.1333 5.29158 33.9086 4.8915 33.5085C4.49142 33.1084 4.26666 32.5658 4.26666 32ZM4.26666 49.0667C4.26666 48.5009 4.49142 47.9582 4.8915 47.5582C5.29158 47.1581 5.8342 46.9333 6.4 46.9333H57.6C58.1658 46.9333 58.7084 47.1581 59.1085 47.5582C59.5086 47.9582 59.7333 48.5009 59.7333 49.0667C59.7333 49.6325 59.5086 50.1751 59.1085 50.5752C58.7084 50.9752 58.1658 51.2 57.6 51.2H6.4C5.8342 51.2 5.29158 50.9752 4.8915 50.5752C4.49142 50.1751 4.26666 49.6325 4.26666 49.0667Z" fill="#444444"/>
</svg>
